# xmcd
#
# Track frame offsets: 
#        180
#        28703
#        55036
#        81046
#        142341
#        168776
#
# Disc length: 2842 seconds
#
# Revision: 2
# Processed by: cddbd v1.5.2PL0 Copyright (c) Steve Scherf et al.
# Submitted via: ExactAudioCopy v1.0b3
#
DISCID=470b1806
DTITLE=Real de Catorce - Azul
DYEAR=1997
DGENRE=Blues
TTITLE0=Mujer sucia (en vivo)
TTITLE1=La medicina (en vivo)
TTITLE2=Malo (en vivo)
TTITLE3=Pago mi renta con un poco de blues (en vivo)
TTITLE4=Blues del atajo (en vivo)
TTITLE5=Azul (en vivo)
EXTD=\n\nYEAR: 1997  ID3G:   0
EXTT0=
EXTT1=
EXTT2=
EXTT3=
EXTT4=
EXTT5=
PLAYORDER=
